<?xml version="1.0" standalone="no"?>
<!DOCTYPE svg PUBLIC "-//W3C//DTD SVG 1.1//EN" "http://www.w3.org/Graphics/SVG/1.1/DTD/svg11.dtd" >
<svg xmlns="http://www.w3.org/2000/svg">
<metadata>Generated by IcoMoon</metadata>
<defs>
<font id="icomoon" horiz-adv-x="1024">
<font-face units-per-em="1024" ascent="960" descent="-64" />
<missing-glyph horiz-adv-x="1024" />
<glyph unicode="&#x20;" horiz-adv-x="512" d="" />
<glyph unicode="&#xe900;" glyph-name="AR" d="M723.2 627.84h-78.72v-121.6h78.72c45.44 0 68.48 23.68 69.76 64s-24.96 57.6-69.76 57.6zM920.96 742.4l-357.76 204.16c-14.731 8.447-32.384 13.429-51.2 13.429s-36.469-4.982-51.711-13.698l0.511 0.269-357.76-204.16c-30.875-18.647-51.2-52.023-51.2-90.147 0-0.033 0-0.065 0-0.098v0.005-407.68c-0.002-0.244-0.003-0.532-0.003-0.821 0-37.915 20.352-71.076 50.727-89.156l0.477-0.263 356.48-204.8c14.625-8.452 32.17-13.438 50.88-13.438s36.255 4.987 51.379 13.703l-0.499-0.265 356.48 204.8c32.267 17.836 53.876 51.456 54.399 90.168l0.001 0.072v407.68c0 0.028 0 0.060 0 0.093 0 38.123-20.325 71.5-50.731 89.884l-0.469 0.263zM439.68 236.8l-35.84 110.080h-166.4l-38.4-110.080h-78.72l166.4 467.2h67.84l166.4-465.28zM808.96 236.8l-112.64 195.2h-51.84v-195.2h-78.72v467.2h152.96c102.4 0 152.96-44.16 152.96-132.48 0.471-4.031 0.74-8.701 0.74-13.434 0-58.709-41.388-107.752-96.579-119.542l-0.801-0.143 124.16-199.68zM262.4 423.040h117.12l-58.88 171.52-58.24-171.52z" />
<glyph unicode="&#xe901;" glyph-name="VR" d="M1024 666.88v-437.76l-171.52 192c-5.094 6.455-8.171 14.708-8.171 23.68s3.077 17.225 8.233 23.761l-0.062-0.081zM591.36 597.12h-70.4v-107.52h70.4c39.68 0 60.8 20.48 64 57.6s-23.040 49.92-64 49.92zM695.040 739.84h-583.68c-1.151 0.044-2.502 0.069-3.858 0.069-59.382 0-107.52-48.138-107.52-107.52 0-0.699 0.007-1.397 0.020-2.094l-0.002 0.104v-364.8c-0.011-0.576-0.017-1.256-0.017-1.937 0-59.382 48.138-107.52 107.52-107.52 0.681 0 1.361 0.006 2.039 0.019l-0.102-0.001h583.68c0.576-0.011 1.256-0.017 1.937-0.017 59.382 0 107.52 48.138 107.52 107.52 0 0.681-0.006 1.361-0.019 2.039l0.001-0.102v364.8c0.011 0.571 0.017 1.245 0.017 1.92 0 59.382-48.138 107.52-107.52 107.52-0.006 0-0.012 0-0.018 0h0.001zM261.12 249.6h-55.68l-148.48 414.080h71.040l107.52-320 104.32 320h71.040zM666.88 249.6l-99.84 174.080h-46.080v-174.080h-69.76v414.080h135.68c90.88 0 136.32-39.68 136.32-118.4 0.451-3.708 0.708-8.001 0.708-12.354 0-51.135-35.485-93.982-83.174-105.26l-0.734-0.146 109.44-177.92z" />
<glyph unicode="&#xe902;" glyph-name="Panorama" d="M813.44 880.64h-602.88c-35.346 0-64-28.654-64-64v0-506.24c0-35.346 28.654-64 64-64v0h602.88c35.346 0 64 28.654 64 64v0 504.96c0.008 0.381 0.013 0.83 0.013 1.28 0 35.346-28.654 64-64 64-0.005 0-0.009 0-0.014 0h0.001zM661.12 743.68c15.212 14.828 35.943 24.056 58.829 24.32h0.051c45.908-0.055 83.103-37.284 83.103-83.2 0-45.95-37.25-83.2-83.2-83.2s-83.2 37.25-83.2 83.2c0 22.999 9.332 43.819 24.416 58.879l0.001 0.001zM809.6 418.56h-204.16c-7.944 0.146-15.128 3.286-20.496 8.335l0.016-0.015-146.56 143.36-151.040-150.4c-5.146-5.444-12.417-8.832-20.48-8.832s-15.334 3.388-20.468 8.819l-0.012 0.013c-5.281 5.223-8.551 12.47-8.551 20.48s3.27 15.257 8.549 20.477l0.003 0.003 171.52 170.88c5.191 5.091 12.308 8.233 20.16 8.233s14.969-3.142 20.165-8.237l-0.005 0.005 158.72-154.88h192c0.191 0.005 0.415 0.007 0.64 0.007 15.906 0 28.8-12.894 28.8-28.8 0-0.003 0-0.005 0-0.008v0c0.005-0.191 0.007-0.415 0.007-0.64 0-15.906-12.894-28.8-28.8-28.8-0.003 0-0.005 0-0.008 0v0zM615.040 58.88h-12.8l-87.040 55.040c-4.113 2.686-9.149 4.284-14.559 4.284-9.013 0-16.989-4.436-21.866-11.243l-0.055-0.081c-3.336-4.5-5.339-10.161-5.339-16.29 0-9.829 5.153-18.455 12.905-23.323l0.115-0.067 25.6-16-42.88-5.12c-34.463-4.724-74.29-7.421-114.747-7.421-60.159 0-118.926 5.963-175.741 17.33l5.687-0.949c-71.040 17.28-113.28 47.36-124.8 88.96-1.724 6.988-2.712 15.010-2.712 23.264 0 28.542 11.825 54.322 30.844 72.709l0.029 0.027c0.419 1.242 0.66 2.673 0.66 4.16s-0.242 2.918-0.687 4.255l0.027-0.095v42.88c-0.179 4.933-3.27 9.102-7.598 10.851l-0.082 0.029c-1.911 1.196-4.233 1.906-6.72 1.906s-4.809-0.71-6.774-1.937l0.054 0.031c-41.627-30.093-68.399-78.506-68.399-133.171 0-13.378 1.603-26.382 4.629-38.83l-0.23 1.121c14.065-26.533 35.089-47.762 60.661-61.692l0.779-0.388c29.86-21.024 65.058-36.799 103.053-45.091l1.907-0.349c47.896-11.041 102.895-17.369 159.373-17.369 4.046 0 8.085 0.032 12.115 0.097l-0.608-0.008c0.482-0.001 1.054-0.001 1.626-0.001 46.32 0 92.044 2.558 137.036 7.539l-5.542-0.498 50.56 5.76-20.48-27.52c-3.377-4.588-5.404-10.351-5.404-16.587 0-9.137 4.352-17.258 11.095-22.402l0.068-0.050c4.503-3.343 10.17-5.352 16.307-5.352 9.018 0 17.023 4.337 22.042 11.040l0.051 0.072 60.16 83.2zM1018.24 384c-9.468 35.22-32.647 63.832-63.317 80.305l-0.683 0.335c-1.87 0.924-4.072 1.464-6.4 1.464s-4.53-0.54-6.486-1.503l0.086 0.038c-4.14-2.273-6.926-6.559-7.040-11.504v-43.536c15.36-9.326 26.769-23.855 31.871-41.093l0.129-0.507c0.696-5.33 1.093-11.494 1.093-17.751 0-44.078-19.717-83.552-50.812-110.081l-0.201-0.168c-56.464-51.535-124.186-91.802-198.952-116.63l-3.928-1.13c-9.078-3.409-15.727-11.335-17.26-20.967l-0.020-0.153c-0.354-1.617-0.557-3.474-0.557-5.379 0-8.117 3.686-15.373 9.474-20.186l0.043-0.035c4.945-4.116 11.363-6.614 18.364-6.614 3.276 0 6.424 0.547 9.359 1.555l-0.203-0.060c86.489 29.075 160.828 73.908 223.122 131.567l-0.402-0.367c41.209 35.425 67.147 87.614 67.147 145.862 0 12.239-1.145 24.21-3.334 35.812l0.187-1.194z" />
<glyph unicode="&#xe903;" glyph-name="debris-resources" d="M198.4 250.24l-198.4 197.76 192 192c0.767-0.018 1.67-0.028 2.575-0.028 65.786 0 119.24 52.796 120.304 118.328l0.001 0.1 197.12 201.6 198.4-199.040h-6.4c-65.542-0.727-118.393-54.028-118.393-119.673 0-66.097 53.583-119.68 119.68-119.68 65.645 0 118.946 52.851 119.672 118.324l0.001 0.069v6.4l199.040-198.4-512-512-202.24 203.52h10.24c64.969 1.458 117.078 54.469 117.078 119.652 0 66.097-53.583 119.68-119.68 119.68s-119.68-53.583-119.68-119.68c0-1.115 0.015-2.227 0.046-3.335l-0.004 0.163s0-5.12 0-8.32zM192 712.96v0c-66.226 2.525-118.956 56.823-118.956 123.436 0 68.218 55.302 123.52 123.52 123.52 66.613 0 120.91-52.73 123.429-118.726l0.007-0.229v-3.2c0.005-0.405 0.008-0.883 0.008-1.362 0-68.218-55.302-123.52-123.52-123.52-1.578 0-3.149 0.030-4.713 0.088l0.226-0.007z" />
<glyph unicode="&#xe904;" glyph-name="reorganization" d="M682.88 748.16h256c46.865-0.36 84.76-38.255 85.12-85.086v-170.914h-1024v170.88c0.36 46.865 38.255 84.76 85.086 85.12h256.034v83.84c-0.006 0.381-0.010 0.83-0.010 1.28 0 47.364 38.396 85.76 85.76 85.76 0.003 0 0.007 0 0.010 0h170.239c0.003 0 0.006 0 0.010 0 47.364 0 85.76-38.396 85.76-85.76 0-0.45-0.003-0.899-0.010-1.348l0.001 0.068zM597.12 320h-170.24v87.040h170.24zM597.12 234.88h85.76v172.16h341.12v-343.040c-0.36-46.865-38.255-84.76-85.086-85.12h-853.794c-46.865 0.36-84.76 38.255-85.12 85.086v343.074h341.12v-170.88zM426.88 832v-83.84h170.24v83.84z" />
<glyph unicode="&#xe905;" glyph-name="data-base-1" d="M512 960c-282.88 0-512-71.68-512-160v-128c0-88.32 229.12-160 512-160s512 71.68 512 160v128c0 88.32-229.12 160-512 160zM512 416c-282.88 0-512 71.68-512 160v-192c0-88.32 229.12-160 512-160s512 71.68 512 160v192c0-88.32-229.12-160-512-160zM512 128c-282.88 0-512 71.68-512 160v-192c0-88.32 229.12-160 512-160s512 71.68 512 160v192c0-88.32-229.12-160-512-160z" />
<glyph unicode="&#xe906;" glyph-name="video-courseware" d="M967.68 800h-911.36c-0.191 0.002-0.417 0.004-0.644 0.004-30.751 0-55.68-24.929-55.68-55.68 0-0.226 0.001-0.452 0.004-0.678v0.034-655.36c-0.002-0.191-0.004-0.417-0.004-0.644 0-30.751 24.929-55.68 55.68-55.68 0.226 0 0.452 0.001 0.678 0.004h911.326c0.191-0.002 0.417-0.004 0.644-0.004 30.751 0 55.68 24.929 55.68 55.68 0 0.226-0.001 0.452-0.004 0.678v-0.034 655.36c0.002 0.191 0.004 0.417 0.004 0.644 0 30.751-24.929 55.68-55.68 55.68-0.226 0-0.452-0.001-0.678-0.004h0.034zM711.68 366.72l-272-157.44c-8.235-4.985-18.185-7.935-28.825-7.935-30.519 0-55.369 24.275-56.293 54.57l-0.002 0.085v320c-0.004 0.263-0.007 0.574-0.007 0.885 0 31.105 25.215 56.32 56.32 56.32 10.632 0 20.576-2.946 29.060-8.066l-0.253 0.142 272.64-157.44c18.813-9.384 31.508-28.489 31.508-50.56s-12.695-41.176-31.182-50.413l-0.326-0.147z" />
<glyph unicode="&#xe907;" glyph-name="set-product" d="M1010.56 643.84l-242.56-242.56c-7.791-9.005-19.234-14.668-32-14.668s-24.21 5.663-31.955 14.615l-0.045 0.053-238.72 242.56c-9.416 7.569-15.392 19.087-15.392 32s5.976 24.431 15.312 31.938l0.080 0.062 242.56 239.36c7.664 7.771 18.31 12.585 30.080 12.585s22.416-4.814 30.075-12.58l0.005-0.005 242.56-243.2c7.771-7.664 12.585-18.31 12.585-30.080s-4.814-22.416-12.58-30.075l-0.005-0.005zM384-64h-341.12c-0.196-0.003-0.428-0.005-0.66-0.005-23.329 0-42.24 18.911-42.24 42.24 0 0.452 0.007 0.902 0.021 1.351l-0.002-0.066v340.48c-0.003 0.192-0.005 0.418-0.005 0.645 0 23.329 18.911 42.24 42.24 42.24 0.227 0 0.453-0.002 0.679-0.005h341.086c0.192 0.003 0.418 0.005 0.645 0.005 23.329 0 42.24-18.911 42.24-42.24 0-0.227-0.002-0.453-0.005-0.679v0.034-343.040c-1.377-22.714-19.985-40.653-42.85-40.96h-0.030zM384 448h-341.12c-0.035 0-0.078 0-0.12 0-23.682 0-42.88 19.198-42.88 42.88 0 1.126 0.043 2.242 0.129 3.347l-0.009-0.146v343.040c0 23.682 19.198 42.88 42.88 42.88v0h341.12c23.682 0 42.88-19.198 42.88-42.88v0-343.040c0.027-0.578 0.043-1.256 0.043-1.937 0-23.954-19.072-43.453-42.859-44.141l-0.063-0.001zM557.44 365.44h343.040c0.192 0.003 0.418 0.005 0.645 0.005 23.329 0 42.24-18.911 42.24-42.24 0-0.227-0.002-0.453-0.005-0.679v0.034-343.68c0.003-0.192 0.005-0.418 0.005-0.645 0-23.329-18.911-42.24-42.24-42.24-0.227 0-0.453 0.002-0.679 0.005h-343.006c-0.765-0.049-1.659-0.076-2.56-0.076-23.682 0-42.88 19.198-42.88 42.88 0 0.027 0 0.054 0 0.081v-0.004 341.12c0 23.682 19.198 42.88 42.88 42.88v0z" />
<glyph unicode="&#xe908;" glyph-name="article-product" d="M874.24 960h-734.72c-61.304-0.722-110.722-50.586-110.722-111.993 0-0.228 0.001-0.455 0.002-0.682v0.035-803.2c1.078-59.965 49.942-108.162 110.063-108.162 0.231 0 0.462 0.001 0.692 0.002h734.685c66.804 0 120.96 54.156 120.96 120.96v0 780.16c0.001 0.192 0.002 0.419 0.002 0.647 0 67.062-54.002 121.511-120.893 122.233l-0.068 0.001zM479.36 256h-196.48c-17.92 0-33.28 20.48-33.28 44.8s15.36 44.8 33.28 44.8h196.48c17.28 0 32.64-21.12 32.64-44.8s-15.36-44.8-32.64-44.8zM668.16 448h-384c-20.801 3.193-36.547 20.963-36.547 42.41 0 0.841 0.024 1.676 0.072 2.505l-0.005-0.115c-0.065 0.88-0.102 1.906-0.102 2.941 0 21.333 15.815 38.973 36.361 41.834l0.222 0.025h384c20.437-2.858 35.994-20.222 35.994-41.221 0-1.26-0.056-2.507-0.166-3.739l0.011 0.159c0.069-0.907 0.109-1.964 0.109-3.031 0-21.108-15.483-38.6-35.712-41.739l-0.237-0.030zM668.16 636.16h-384c-20.767 2.887-36.582 20.526-36.582 41.859 0 1.035 0.037 2.061 0.11 3.077l-0.008-0.136c-0.042 0.714-0.067 1.549-0.067 2.39 0 21.447 15.745 39.217 36.307 42.379l0.239 0.030h384c20.466-3.169 35.949-20.661 35.949-41.769 0-1.067-0.040-2.124-0.117-3.171l0.008 0.14c0.18-1.453 0.283-3.136 0.283-4.842 0-21.044-15.625-38.438-35.907-41.214l-0.216-0.024zM911.36 53.76c0-34.56-15.36-60.16-81.92-60.16h-7.68c4.872 14.633 7.683 31.481 7.683 48.984 0 0.329-0.001 0.658-0.003 0.986v-0.051 803.84c0.001 0.23 0.002 0.503 0.002 0.775 0 17.117-2.811 33.577-7.998 48.943l0.316-1.078h10.24c64 0 81.92-26.24 81.92-60.16z" />
<glyph unicode="&#xe909;" glyph-name="course-product" d="M606.080 314.24l-138.24 128-138.24-128v453.76h-55.68s-88.96-12.16-88.32 64 79.36 64 79.36 64h654.72c12.16 0 27.52 10.24 27.52 37.12-0.358 14.921-12.539 26.88-27.513 26.88-0.003 0-0.005 0-0.008 0h-645.76c-4.382 0.449-9.469 0.706-14.615 0.706-79.288 0-144.367-60.836-151.105-138.377l-0.040-0.569v-728.96c4.043-75.767 56.867-138.15 127.452-156.537l1.188-0.263h507.52c169.6 0 192 128 192 128v704h-330.24v-451.84z" />
<glyph unicode="&#xe90a;" glyph-name="course-product-pub" d="M955.52 721.28h-477.44l-94.080 204.8h-320c-35.346 0-64-28.654-64-64v0-828.16c-0.001-0.11-0.001-0.24-0.001-0.37 0-17.581 7.089-33.507 18.565-45.074l-0.004 0.004c11.563-11.472 27.489-18.561 45.070-18.561 0.13 0 0.26 0 0.39 0.001h895.98c0.11-0.001 0.24-0.001 0.37-0.001 17.581 0 33.507 7.089 45.074 18.565l-0.004-0.004c11.472 11.563 18.561 27.489 18.561 45.070 0 0.13 0 0.26-0.001 0.39v-0.020 618.88c-1.977 36.998-31.482 66.503-68.299 68.472l-0.181 0.008zM655.36 95.36c-2.135-0.156-4.625-0.244-7.136-0.244-28.048 0-53.511 11.069-72.259 29.078l0.035-0.033c-19.763 19.189-32.17 45.861-32.639 75.433l-0.001 0.087c-0.002 0.235-0.003 0.512-0.003 0.79 0 10.458 1.64 20.534 4.676 29.983l-0.192-0.693-76.8 30.72c-22.381-45.452-68.37-76.175-121.535-76.175-0.698 0-1.395 0.005-2.090 0.016l0.105-0.001c-7.4-1.425-15.91-2.24-24.611-2.24-75.287 0-136.32 61.033-136.32 136.32s61.033 136.32 136.32 136.32c8.701 0 17.211-0.815 25.459-2.373l-0.848 0.133c0.889 0.021 1.935 0.033 2.985 0.033 40.36 0 76.565-17.79 101.201-45.957l0.134-0.157 78.72 57.6c-7.684 12.714-12.231 28.072-12.231 44.492 0 1.234 0.026 2.461 0.076 3.683l-0.006-0.175c-0.036 0.954-0.056 2.075-0.056 3.2 0 50.545 40.975 91.52 91.52 91.52s91.52-40.975 91.52-91.52c0-50.525-40.943-91.488-91.461-91.52h-0.003c-0.078 0-0.17 0-0.262 0-21.026 0-40.484 6.715-56.346 18.117l0.288-0.197-81.92-64c10.075-18.397 16.001-40.306 16.001-63.6 0-0.141 0-0.281-0.001-0.422v0.022c0.61-4.612 0.959-9.945 0.959-15.36s-0.348-10.748-1.024-15.978l0.065 0.618 81.92-26.88c18.592 28.606 49.789 47.663 85.528 49.272l0.232 0.008c0.025 0 0.054 0 0.084 0 38.433 0 71.982-20.912 89.889-51.978l0.267-0.502c9.037-14.898 14.385-32.905 14.385-52.16s-5.348-37.262-14.64-52.614l0.255 0.454c-18.415-31.222-51.879-51.84-90.158-51.84-0.029 0-0.057 0-0.086 0h0.005z" />
<glyph unicode="&#xe90b;" glyph-name="my-resources" d="M760.96 422.4h-702.72v439.040c-0.074 1.193-0.115 2.588-0.115 3.993 0 38.174 30.946 69.12 69.12 69.12 1.617 0 3.221-0.056 4.81-0.165l-0.215 0.012h307.2c1.181 0.072 2.562 0.113 3.953 0.113 38.174 0 69.12-30.946 69.12-69.12 0-1.391-0.041-2.772-0.122-4.142l0.009 0.189v-36.48h175.36c1.181 0.071 2.562 0.112 3.952 0.112 38.527 0 69.76-31.233 69.76-69.76 0-1.39-0.041-2.771-0.121-4.141l0.009 0.189h145.92c1.387 0.1 3.006 0.157 4.637 0.157 37.82 0 68.48-30.66 68.48-68.48 0-1.632-0.057-3.25-0.169-4.853l0.012 0.216v-256zM760.96 495.36h145.92v183.040h-145.92zM512 495.36h175.36v256h-175.36zM0 364.16h1024v-329.6c0.072-1.181 0.113-2.562 0.113-3.953 0-38.174-30.946-69.12-69.12-69.12-1.391 0-2.772 0.041-4.142 0.122l0.189-0.009h-878.080c-1.181-0.072-2.562-0.113-3.953-0.113-38.174 0-69.12 30.946-69.12 69.12 0 1.391 0.041 2.772 0.122 4.142l-0.009-0.189zM241.28 224.64c-20.147 0-36.48-16.333-36.48-36.48s16.333-36.48 36.48-36.48h512c20.147 0 36.48 16.333 36.48 36.48s-16.333 36.48-36.48 36.48v0z" />
<glyph unicode="&#xe90c;" glyph-name="resources-pub" d="M768 832l154.88-164.48v-576c0.005-0.191 0.008-0.415 0.008-0.64 0-14.845-12.035-26.88-26.88-26.88-0.003 0-0.005 0-0.008 0h-768c-14.228 0.34-25.632 11.955-25.632 26.233 0 0.453 0.011 0.903 0.034 1.35l-0.003-0.063v576l153.6 164.48zM224 721.92h576l-51.2 55.040h-472.96zM768 931.84h-512c-0.468 0.008-1.021 0.012-1.575 0.012-28.614 0-54.416-12.037-72.62-31.324l-0.045-0.049-154.88-164.48c-16.663-18.063-26.88-42.292-26.88-68.907 0-0.075 0-0.15 0-0.225v0.012-576c0-70.692 57.308-128 128-128v0h768c70.692 0 128 57.308 128 128v0 576c0 0.063 0 0.138 0 0.213 0 26.615-10.217 50.843-26.944 68.976l0.064-0.070-154.88 164.48c-18.554 19.343-44.613 31.363-73.48 31.363-0.267 0-0.534-0.001-0.801-0.003h0.041zM538.88 328.32c-14.743 17.126-23.87 39.455-24.319 63.905l-0.001 0.095v64h-2.56v-64c-0.45-24.544-9.577-46.874-24.431-64.133l0.111 0.133 26.88-23.040zM128 64h768c14.568 0.358 26.24 12.252 26.24 26.872 0 0.003 0 0.005 0 0.008v0 563.84h-822.4v-562.56c-0.048-0.598-0.076-1.294-0.076-1.996 0-14.492 11.748-26.24 26.24-26.24 0.702 0 1.398 0.028 2.087 0.082l-0.091-0.006zM408.96 392.96v164.48h206.080v-164.48h152.96l-256-218.88-256 218.88z" />
<glyph unicode="&#xe90d;" glyph-name="atlas" d="M57.6 691.2c-32 0-57.6-25.6-57.6-57.6v-627.2c0-32 25.6-57.6 57.6-57.6h908.8c32 0 57.6 25.6 57.6 57.6v627.2c0 32-25.6 57.6-57.6 57.6h-908.8zM729.6 396.8c-19.2 0-32 12.8-44.8 25.6-6.4 12.8-6.4 32 0 51.2 6.4 12.8 25.6 25.6 44.8 25.6 25.6 0 51.2-25.6 51.2-51.2 0-32-19.2-51.2-51.2-51.2v0zM844.8 83.2h-665.6c-12.8 0-25.6 6.4-32 19.2s-6.4 32 6.4 38.4l185.6 224c0 12.8 12.8 19.2 25.6 19.2 6.4 0 19.2-6.4 25.6-12.8l166.4-198.4c6.4-6.4 19.2-12.8 32-12.8s19.2 6.4 32 12.8l89.6 108.8c6.4 6.4 19.2 12.8 32 12.8s19.2-6.4 32-12.8l108.8-134.4c6.4-12.8 12.8-25.6 6.4-38.4-12.8-19.2-25.6-25.6-44.8-25.6v0zM185.6 819.2h652.8v-76.8h-652.8v76.8zM281.6 934.4h467.2v-83.2h-467.2v83.2z" />
<glyph unicode="&#xe90e;" glyph-name="audio-set" d="M864 352c0-12.8-12.8-19.2-25.6-19.2h-25.6c-12.8 0-25.6 6.4-25.6 19.2v192c0 12.8 12.8 19.2 25.6 19.2h25.6c12.8 0 25.6-6.4 25.6-19.2v-192zM697.6 230.4c0-12.8-12.8-19.2-25.6-19.2h-25.6c-12.8 0-25.6 6.4-25.6 19.2v428.8c0 12.8 12.8 19.2 25.6 19.2h25.6c12.8 0 25.6-6.4 25.6-19.2v-428.8zM556.8 140.8c0-12.8-12.8-19.2-25.6-19.2h-19.2c-12.8 0-25.6 6.4-25.6 19.2v614.4c0 12.8 12.8 19.2 25.6 19.2h25.6c12.8 0 25.6-6.4 25.6-19.2v-614.4zM396.8 230.4c0-12.8-12.8-19.2-25.6-19.2h-25.6c-12.8 0-25.6 6.4-25.6 19.2v428.8c0 12.8 12.8 19.2 25.6 19.2h25.6c12.8 0 25.6-6.4 25.6-19.2v-428.8zM256 352c0-12.8-12.8-19.2-25.6-19.2h-19.2c-12.8 0-25.6 6.4-25.6 19.2v192c0 12.8 12.8 19.2 25.6 19.2h25.6c6.4 0 19.2-6.4 19.2-19.2v-192zM928 844.8h-832c-51.2 0-96-44.8-96-96v-627.2c0-51.2 44.8-96 96-96h832c51.2 0 96 44.8 96 96v627.2c0 51.2-44.8 96-96 96v0z" />
<glyph unicode="&#xe90f;" glyph-name="video-set" d="M134.4 198.4h-57.6v102.4h51.2c19.2 0 38.4 12.8 38.4 38.4 0 19.2-12.8 32-38.4 32h-51.2v512h684.8v-51.2c0-25.6 12.8-38.4 38.4-38.4 19.2 0 38.4 12.8 38.4 38.4v64c0 32-25.6 64-64 64h-710.4c-32 0-57.6-25.6-57.6-64v-716.8c0-32 25.6-64 64-64h70.4c19.2 0 38.4 12.8 38.4 38.4-6.4 32-25.6 44.8-44.8 44.8v0zM960 774.4h-710.4c-32 0-64-25.6-64-64v-710.4c0-32 25.6-64 64-64h710.4c32 0 64 25.6 64 64v723.2c-6.4 32-32 51.2-64 51.2zM486.4 588.8c0 12.8 12.8 25.6 25.6 19.2l288-166.4c12.8-6.4 12.8-25.6 0-32l-288-166.4c-12.8-6.4-25.6 0-25.6 19.2v326.4zM947.2 12.8h-684.8v102.4h684.8v-102.4zM678.4 441.6l-102.4 57.6c-12.8 6.4-25.6 0-25.6-12.8v-115.2c0-12.8 12.8-19.2 25.6-12.8l102.4 57.6c12.8 0 12.8 19.2 0 25.6z" />
<glyph unicode="&#xe910;" glyph-name="essays" d="M844.8 704c-57.6 0-102.4 44.8-102.4 102.4v153.6h-448c-32 0-51.2-25.6-51.2-51.2v-723.2c0-32 25.6-51.2 51.2-51.2h646.4c32 0 51.2 25.6 51.2 51.2v518.4h-147.2zM876.8 224h-512v51.2h512v-51.2zM876.8 377.6h-512v51.2h512v-51.2zM876.8 537.6h-512v44.8h512v-44.8zM787.2 960v-153.6c0-32 25.6-51.2 51.2-51.2h153.6l-204.8 204.8zM620.8 83.2v-44.8h-512v51.2h83.2v96h-89.6v51.2h89.6v108.8h-89.6v44.8h89.6v377.6h-153.6c-32 0-51.2-25.6-51.2-51.2v-723.2c0-32 25.6-51.2 51.2-51.2h646.4c32 0 51.2 25.6 51.2 51.2v89.6h-115.2z" />
<glyph unicode="&#xe911;" glyph-name="book-set" d="M800 960h-633.6c-19.2 0-38.4-6.4-57.6-25.6-12.8-12.8-19.2-32-19.2-51.2v-864c0-19.2 6.4-38.4 25.6-57.6 12.8-19.2 32-25.6 51.2-25.6h627.2c19.2 0 38.4 6.4 57.6 25.6 12.8 12.8 25.6 32 25.6 57.6v864c0 19.2-6.4 38.4-25.6 57.6-12.8 12.8-32 19.2-51.2 19.2v0zM800 172.8h-633.6v710.4h627.2v-710.4zM480 326.4c64 0 115.2 12.8 153.6 32v96c-38.4-25.6-76.8-38.4-121.6-38.4-76.8 0-115.2 32-121.6 96h281.6v57.6c0 64-19.2 115.2-51.2 153.6-32 32-83.2 51.2-140.8 51.2s-108.8-19.2-153.6-64c-38.4-38.4-57.6-96-57.6-166.4s19.2-121.6 57.6-160c32-38.4 89.6-57.6 153.6-57.6v0zM422.4 665.6c19.2 19.2 38.4 25.6 57.6 25.6 51.2 0 76.8-32 76.8-96h-166.4c6.4 25.6 12.8 51.2 32 70.4v0z" />
<glyph unicode="&#xe912;" glyph-name="courseware" d="M928 723.2c0 0 0 6.4 0 0v12.8c0 19.2-12.8 32-32 32 0 0 0 0 0 0h-70.4v134.4c0 0 0 0 0 0 0 6.4 0 6.4 0 12.8 6.4 25.6-12.8 44.8-25.6 44.8h-601.6c-51.2 0-96-57.6-102.4-128 0 0 0-6.4 0-6.4v-787.2c0 0 0 0 0 0 0-57.6 44.8-96 102.4-96h697.6c0 0 0 0 0 0 19.2 0 32 12.8 32 32v748.8c0 0 0 0 0 0zM313.6 345.6h198.4c19.2 0 32-25.6 32-51.2s-12.8-51.2-32-51.2h-198.4c-19.2 0-32 25.6-32 51.2 6.4 25.6 19.2 51.2 32 51.2zM288 563.2c0 25.6 12.8 51.2 32 51.2h377.6c19.2 0 32-25.6 32-51.2s-12.8-51.2-32-51.2h-384c-12.8 0-25.6 19.2-25.6 51.2zM198.4 870.4h563.2v-102.4h-563.2c-19.2 0-38.4 25.6-38.4 51.2 0 32 19.2 51.2 38.4 51.2z" />
<glyph unicode="&#xe913;" glyph-name="data-base" d="M0-64h268.8v1024h-268.8v-1024zM230.4 422.4h-192v76.8h192v-76.8zM38.4 832h192v-76.8h-192v76.8zM38.4 665.6h192v-76.8h-192v76.8zM396.8-64h230.4v1024h-230.4v-1024zM595.2 422.4h-166.4v76.8h166.4v-76.8zM428.8 832h166.4v-76.8h-166.4v76.8zM428.8 665.6h166.4v-76.8h-166.4v76.8zM755.2 960v-1024h268.8v1024h-268.8zM793.6 832h192v-76.8h-192v76.8zM793.6 665.6h192v-76.8h-192v76.8zM985.6 422.4h-192v76.8h192v-76.8z" />
<glyph unicode="&#xe914;" glyph-name="magazine" d="M985.6 729.6h-76.8c0 12.8-6.4 25.6-19.2 32h-6.4c-6.4 0-134.4 51.2-243.2 51.2-51.2 0-96-12.8-128-32-32 25.6-76.8 38.4-128 38.4-108.8 0-236.8-51.2-243.2-57.6h-6.4c-12.8-6.4-19.2-19.2-19.2-32h-76.8c-6.4 0-19.2-6.4-25.6-6.4-6.4-6.4-6.4-19.2-6.4-25.6v-595.2c0-19.2 12.8-32 32-32h953.6c19.2 0 32 12.8 32 32v595.2c-6.4 19.2-19.2 32-38.4 32zM531.2 742.4c140.8 83.2 339.2-25.6 339.2-25.6 0-70.4 0-140.8 0-204.8-108.8 51.2-224 64-345.6 25.6v204.8zM384 774.4c25.6 0 64-6.4 102.4-25.6v-492.8c-89.6 64-236.8 19.2-332.8-19.2v492.8c83.2 25.6 160 44.8 230.4 44.8zM953.6 134.4h-889.6v537.6h44.8v-473.6c0-6.4 6.4-19.2 19.2-19.2h761.6c6.4 0 6.4 0 12.8 6.4 0 0 6.4 6.4 6.4 12.8v473.6h44.8v-537.6zM204.8 614.4v0c64 25.6 115.2 38.4 140.8 44.8 32 0 51.2 0 83.2-6.4 0 0 12.8 0 12.8 0 6.4 0 19.2 6.4 19.2 19.2s-6.4 19.2-12.8 19.2c0 0-12.8 0-12.8 0-38.4 6.4-57.6 6.4-89.6 0-38.4 0-83.2-12.8-153.6-38.4-6.4-6.4-12.8-19.2-12.8-25.6s12.8-19.2 25.6-12.8zM448 588.8c-6.4 0-6.4 0-12.8 0-32 6.4-64 12.8-96 6.4-32 0-76.8-19.2-140.8-44.8-6.4 0-12.8-12.8-6.4-25.6 0-6.4 12.8-12.8 19.2-6.4v0c57.6 25.6 102.4 38.4 134.4 44.8s57.6 0 83.2-6.4c0 0 6.4 0 12.8 0s12.8 0 19.2 6.4c0 0 0 6.4 0 12.8s-6.4 12.8-12.8 12.8zM326.4 486.4c-25.6 0-64-12.8-108.8-32-6.4-6.4-12.8-12.8-12.8-19.2s0-12.8 6.4-19.2c6.4-6.4 12.8-6.4 19.2 0 38.4 19.2 76.8 32 96 32 6.4 0 19.2 12.8 12.8 19.2 6.4 12.8 0 19.2-12.8 19.2z" />
<glyph unicode="&#xe915;" glyph-name="fold-true" d="M858.585 896.985v-905.846c0-31.508 31.508-63.015 63.015-63.015 39.385 0 63.015 23.631 63.015 63.015v905.846c0 39.385-23.631 63.015-63.015 63.015s-63.015-23.631-63.015-63.015v0zM575.015-0.985v897.969c0 39.385-23.631 63.015-63.015 63.015-31.508 0-63.015-23.631-63.015-63.015v-905.846c0-31.508 31.508-55.138 63.015-55.138 39.385 0 63.015 23.631 63.015 63.015v0zM165.415-0.985v897.969c0 39.385-23.631 63.015-63.015 63.015s-63.015-23.631-63.015-63.015v-905.846c0-31.508 23.631-55.138 63.015-55.138s63.015 23.631 63.015 63.015v0z" />
<glyph unicode="&#xe916;" glyph-name="fold" d="M94.523 833.969h842.831c31.508 0 55.138 31.508 55.138 63.015-7.877 31.508-31.508 63.015-63.015 63.015h-834.954c-31.508 0-55.138-31.508-55.138-63.015 0-39.385 23.631-63.015 55.138-63.015v0zM929.477 511.015h-834.954c-31.508 0-55.138-31.508-55.138-63.015s23.631-63.015 55.138-63.015h842.831c31.508 0 55.138 31.508 55.138 63.015-7.877 31.508-31.508 63.015-63.015 63.015v0zM929.477 62.031h-834.954c-31.508 0-55.138-31.508-55.138-63.015s23.631-63.015 55.138-63.015h842.831c31.508 0 55.138 31.508 55.138 63.015-7.877 39.385-31.508 63.015-63.015 63.015v0z" />
<glyph unicode="&#xe917;" glyph-name="other" d="M928 812.8c-12.8 12.8-32 19.2-51.2 19.2 0 0 0 0-6.4 0 0 0-12.8 0-25.6 0-25.6 0-83.2 0-134.4 12.8-64 12.8-140.8 89.6-166.4 102.4-6.4 6.4-19.2 12.8-32 12.8s-25.6-6.4-38.4-12.8c0 0-83.2-83.2-160-102.4-51.2-12.8-102.4-12.8-134.4-12.8-12.8 0-25.6 0-25.6 0s0 0-6.4 0c-19.2 0-32-6.4-44.8-19.2-12.8-6.4-19.2-25.6-19.2-44.8v-160c0-595.2 403.2-672 416-672 6.4 0 6.4 0 12.8 0s6.4 0 12.8 0c19.2 0 422.4 76.8 422.4 672v160c0 19.2-6.4 38.4-19.2 44.8zM512 166.4c-96 0-147.2 51.2-166.4 153.6l83.2 19.2c12.8-64 38.4-89.6 83.2-89.6 51.2 0 83.2 25.6 83.2 83.2-6.4 51.2-32 76.8-83.2 83.2h-64v83.2h44.8c51.2 0 76.8 25.6 83.2 76.8 0 44.8-19.2 64-57.6 64-44.8 0-70.4-25.6-76.8-83.2l-89.6 25.6c25.6 96 76.8 147.2 160 147.2 102.4-6.4 153.6-57.6 153.6-153.6 0-51.2-19.2-83.2-64-108.8 57.6-25.6 83.2-70.4 83.2-134.4-6.4-108.8-64-160-172.8-166.4z" />
<glyph unicode="&#xe918;" glyph-name="d3" d="M32 704l480 256 480-256-480-249.6-480 249.6zM556.8 377.6v-441.6l435.2 230.4v441.6l-435.2-230.4zM467.2 377.6l-435.2 230.4v-441.6l435.2-230.4v441.6z" />
<glyph unicode="&#xe919;" glyph-name="ar" d="M275.2 441.6c25.6 0 51.2 25.6 51.2 51.2s-25.6 51.2-51.2 51.2-51.2-25.6-51.2-51.2c0-25.6 19.2-51.2 51.2-51.2zM748.8 441.6c25.6 0 51.2 25.6 51.2 51.2s-25.6 51.2-51.2 51.2-51.2-25.6-51.2-51.2c0-25.6 19.2-51.2 51.2-51.2zM896 864h-768c-70.4 0-128-57.6-128-128v-569.6c0-70.4 57.6-128 128-128h211.2c12.8 0 25.6 6.4 32 19.2l128 172.8c0 0 0 0 0 6.4 0 0 6.4 6.4 6.4 6.4s6.4-6.4 6.4-6.4c0 0 0 0 0-6.4l128-172.8c6.4-12.8 19.2-19.2 32-19.2h224c70.4 0 128 57.6 128 128v563.2c0 76.8-57.6 134.4-128 134.4zM275.2 345.6c-83.2 0-147.2 64-147.2 147.2s64 147.2 147.2 147.2 147.2-64 147.2-147.2c0-83.2-70.4-147.2-147.2-147.2zM748.8 345.6c-83.2 0-147.2 64-147.2 147.2s64 147.2 147.2 147.2 147.2-64 147.2-147.2c0-83.2-70.4-147.2-147.2-147.2z" />
<glyph unicode="&#xe91a;" glyph-name="h5" d="M896 960c-89.6 0-364.8 0-364.8 0s-300.8 0-403.2 0c-38.4 0-70.4 0-70.4-44.8l38.4-793.6c0-12.8 12.8-32 25.6-32l377.6-153.6c6.4 0 6.4 0 12.8 0s6.4 0 12.8 0l377.6 147.2c12.8 6.4 25.6 19.2 25.6 32l38.4 800c0 44.8-38.4 44.8-70.4 44.8zM774.4 710.4h-467.2l12.8-160h441.6c12.8 0 19.2-6.4 32-12.8 6.4-6.4 12.8-19.2 12.8-32l-19.2-249.6c0-19.2-12.8-32-25.6-38.4l-230.4-83.2c-6.4 0-6.4 0-12.8 0s-12.8 0-12.8 0l-217.6 83.2c-25.6 6.4-32 19.2-38.4 38.4l-6.4 96c0 25.6 12.8 44.8 38.4 44.8s44.8-12.8 44.8-38.4l6.4-76.8 179.2-64 192 70.4 6.4 179.2h-435.2c-19.2 0-38.4 12.8-38.4 38.4l-12.8 249.6c0 12.8 6.4 25.6 12.8 32s19.2 12.8 32 12.8h512c25.6 0 38.4-19.2 38.4-38.4 0-32-19.2-51.2-44.8-51.2z" />
<glyph unicode="&#xe91b;" glyph-name="back" d="M972.8 729.6l-416 204.8c-6.4 6.4-25.6 6.4-38.4 6.4s-25.6-6.4-38.4-12.8l-416-198.4c-19.2-6.4-32-25.6-32-51.2 0-19.2 12.8-38.4 32-44.8l416-198.4c12.8-6.4 25.6-12.8 38.4-12.8s25.6 6.4 38.4 12.8l416 204.8c19.2 12.8 32 32 32 51.2 0 12.8-12.8 32-32 38.4zM492.8 249.6l12.8-6.4 12.8 6.4 486.4 230.4c19.2 6.4 25.6 25.6 19.2 44.8-6.4 12.8-25.6 19.2-44.8 12.8l-486.4-230.4h25.6l-473.6 230.4c-12.8 6.4-32 0-44.8-19.2-6.4-12.8 0-32 12.8-44.8l480-224zM492.8 102.4l12.8-6.4 12.8 6.4 486.4 230.4c19.2 12.8 25.6 32 19.2 44.8s-25.6 19.2-44.8 12.8l-486.4-230.4h25.6l-473.6 230.4c-12.8 6.4-32 0-44.8-12.8-6.4-12.8 0-32 12.8-44.8l480-230.4zM492.8-38.4l12.8-6.4 12.8 6.4 486.4 230.4c12.8 6.4 19.2 25.6 12.8 44.8-6.4 12.8-25.6 19.2-44.8 12.8l-486.4-230.4h25.6l-473.6 230.4c-12.8 6.4-32 0-44.8-12.8-6.4-12.8 0-32 12.8-44.8l486.4-230.4z" />
<glyph unicode="&#xe91c;" glyph-name="ebook" d="M985.6 787.2c-19.2 0-38.4-12.8-38.4-38.4v-684.8c0-38.4-38.4-64-83.2-64h-684.8c-51.2 0-102.4 6.4-108.8 64v6.4c-6.4 64 57.6 64 96 64h652.8c19.2 0 19.2 6.4 19.2 25.6v646.4c0 89.6-25.6 153.6-121.6 153.6h-537.6c-83.2 0-166.4-51.2-166.4-153.6v-761.6c6.4-70.4 57.6-108.8 140.8-108.8h716.8c83.2 0 140.8 44.8 140.8 128v684.8c0 25.6-6.4 38.4-25.6 38.4zM358.4 806.4c128 38.4 262.4-38.4 300.8-172.8 6.4-25.6 6.4-44.8 6.4-70.4 0 0 0 0 0-6.4 0 0 0 0 0 0v-6.4c0 0 0 6.4 0 6.4 0-12.8-12.8-25.6-25.6-25.6h-345.6c-12.8 0-25.6 12.8-25.6 25.6s6.4 32 19.2 32h307.2c0 12.8 0 19.2-6.4 32-32 108.8-121.6 160-230.4 128-89.6-38.4-140.8-147.2-108.8-249.6 32-108.8 121.6-160 230.4-128 51.2 19.2 76.8 38.4 102.4 83.2v0c0 6.4 6.4 6.4 6.4 12.8 12.8 12.8 38.4 19.2 51.2-6.4 0-6.4 0-12.8 0-25.6v0c-32-57.6-83.2-108.8-147.2-128-128-38.4-262.4 38.4-300.8 172.8-38.4 140.8 38.4 281.6 166.4 326.4z" />
<glyph unicode="&#xe91d;" glyph-name="multi-ebook" d="M499.2 947.2c76.8 0 134.4-57.6 134.4-128s-57.6-128-134.4-128c-76.8 0-134.4 57.6-134.4 128s64 128 134.4 128v0zM1024 460.8c0-108.8-89.6-192-198.4-192s-198.4 89.6-198.4 192c0 108.8 89.6 192 198.4 192s198.4-83.2 198.4-192v0zM499.2-51.2c-76.8 0-134.4 57.6-134.4 128s57.6 128 134.4 128c76.8 0 134.4-57.6 134.4-128s-57.6-128-134.4-128v0zM0 448c0 64 57.6 121.6 121.6 121.6 70.4-6.4 128-57.6 128-121.6s-57.6-121.6-121.6-121.6c-70.4 0-128 51.2-128 121.6v0zM403.233 763.959l31.692-31.665-244.27-244.477-31.692 31.665 244.27 244.477zM566.6 725.852l31.692 31.665 131.182-131.293-31.692-31.665-131.182 131.293zM709.38 332.088l33.649-29.577-152.11-173.053-33.649 29.577 152.11 173.053zM155.725 384.962l31.064 32.278 281.283-270.703-31.064-32.278-281.283 270.703z" />
<glyph unicode="&#xe91e;" glyph-name="check" d="M1011.2 947.2c-12.8 6.4-25.6 12.8-38.4 12.8s-25.6-6.4-38.4-12.8l-76.8-76.8-128-121.6-179.2-172.8-192-192v-76.8h76.8l192 185.6 89.6 83.2 198.4 192 89.6 89.6c25.6 32 25.6 64 6.4 89.6v0zM960 729.6v0l-198.4-192-89.6-89.6-192-185.6-19.2-19.2h-172.8v172.8l19.2 19.2 192 185.6 179.2 172.8 102.4 102.4h-704c-32 0-64-25.6-64-64v-832c0-32 25.6-64 64-64h857.6c32 0 64 25.6 64 64v768l-32-25.6-6.4-12.8z" />
<glyph unicode="&#xe91f;" glyph-name="course" d="M1004.8 544h-800c-6.4 0-12.8-6.4-12.8-6.4l-185.6-486.4c0-6.4 0-12.8 12.8-12.8h806.4c6.4 0 6.4 0 12.8 6.4l185.6 486.4c0 6.4-6.4 12.8-19.2 12.8v0zM140.8 608h678.4c6.4 0 12.8 6.4 12.8 12.8v102.4c0 6.4-6.4 12.8-12.8 12.8h-396.8c0 0-6.4 0-6.4 6.4l-121.6 115.2c0 0-6.4 6.4-6.4 6.4h-268.8c-6.4 0-12.8-6.4-12.8-12.8v-793.6c0 0 6.4 0 6.4 0l115.2 537.6c6.4 6.4 6.4 12.8 12.8 12.8v0z" />
<glyph unicode="&#xe920;" glyph-name="authority" d="M531.2 19.2v0 0c0 0 0 0 0 0v0zM921.6 832l-396.8 128-390.4-128c-19.2 0-25.6-19.2-25.6-32v-499.2c0-6.4 19.2-83.2 102.4-166.4 64-64 211.2-140.8 275.2-172.8 12.8-6.4 12.8-6.4 19.2-12.8l19.2-12.8c6.4 0 12.8 0 19.2 0l19.2 12.8c38.4 19.2 211.2 115.2 288 185.6 83.2 76.8 102.4 160 102.4 166.4v499.2c-6.4 12.8-19.2 32-32 32zM659.2 262.4h-83.2v-121.6c0-25.6-25.6-51.2-51.2-51.2s-51.2 25.6-51.2 51.2v313.6c0 0 0 0 0 0-6.4 0-19.2 6.4-25.6 12.8-38.4 12.8-64 38.4-83.2 70.4-12.8 25.6-25.6 64-25.6 102.4 6.4 38.4 19.2 76.8 44.8 108.8 44.8 57.6 128 76.8 198.4 51.2 38.4-12.8 70.4-38.4 89.6-70.4 25.6-25.6 32-64 32-96 0 0 0 0 0 0s0 0 0-6.4c0-76.8-57.6-153.6-134.4-172.8v-89.6h83.2c25.6 0 51.2-25.6 51.2-51.2v0 0c6.4-32-12.8-51.2-44.8-51.2zM608 627.2c0-45.95-37.25-83.2-83.2-83.2s-83.2 37.25-83.2 83.2c0 45.95 37.25 83.2 83.2 83.2s83.2-37.25 83.2-83.2z" />
<glyph unicode="&#xe921;" glyph-name="video" d="M448 761.6l-153.6 179.2h-172.8l153.6-179.2h172.8zM889.6 761.6l-153.6 179.2h-166.4l153.6-179.2h166.4zM672 761.6l-153.6 179.2h-172.8l153.6-179.2h172.8zM953.6 940.8h-166.4l153.6-179.2h83.2v108.8c0 38.4-32 70.4-70.4 70.4v0zM70.4 940.8h-6.4c-38.4 0-64-32-64-64v-108.8h224l-153.6 172.8zM0 38.4c0-44.8 32-76.8 76.8-76.8h870.4c44.8 0 76.8 32 76.8 76.8v678.4h-1024v-678.4zM358.4 518.4c0 38.4 32 57.6 64 57.6 12.8 0 25.6 0 38.4-6.4l256-147.2c44.8-25.6 44.8-89.6 0-108.8l-256-147.2c-12.8-6.4-19.2-6.4-38.4-6.4-38.4 0-64 19.2-64 57.6v300.8z" />
<glyph unicode="&#xe922;" glyph-name="arrow-right" d="M204.8 960l614.4-512-614.4-512v1024z" />
<glyph unicode="&#xe923;" glyph-name="home" d="M601.6 921.6c-51.2 51.2-134.4 51.2-179.2 0 0 0 0 0 0 0l-390.4-403.2c-25.6-19.2-38.4-57.6-25.6-96 6.4-19.2 32-38.4 64-38.4h57.6v-313.6c-6.4-70.4 44.8-134.4 115.2-140.8 0 0 6.4 0 6.4 0h166.4v332.8c0 38.4-6.4 57.6 32 57.6h128c38.4 0 32-19.2 32-57.6v-326.4h166.4c70.4 0 128 57.6 128 134.4 0 0 0 6.4 0 6.4v307.2h57.6c25.6 0 51.2 12.8 64 38.4 12.8 32 0 70.4-25.6 96l-396.8 403.2z" />
<glyph unicode="&#xe924;" glyph-name="relate" d="M211.2-25.6v633.6c0 25.6-19.2 44.8-44.8 44.8h-128c-19.2-6.4-38.4-25.6-38.4-44.8v-627.2l211.2-6.4zM486.4-25.6v902.4c0 25.6-19.2 44.8-44.8 44.8h-128c-25.6 0-44.8-19.2-44.8-44.8v-902.4h217.6zM755.2-25.6v396.8c0 25.6-19.2 44.8-44.8 44.8h-128c-25.6 0-44.8-19.2-44.8-44.8v-396.8h217.6zM1024-25.6v633.6c0 25.6-19.2 44.8-44.8 44.8h-128c-25.6 0-44.8-19.2-44.8-44.8v-627.2l217.6-6.4z" />
<glyph unicode="&#xe925;" glyph-name="audio-prod" d="M896 953.6h-768c-70.4 0-128-57.6-128-128v-768c0-70.4 57.6-128 128-128h768c70.4 0 128 57.6 128 128v768c0 70.4-57.6 128-128 128zM896 409.6h-51.2l-64-134.4c-6.4-12.8-25.6-25.6-38.4-25.6-19.2 0-32 12.8-32 32l-44.8 179.2-38.4-102.4c-6.4-19.2-19.2-25.6-32-32-19.2 0-32 6.4-38.4 25.6l-25.6 51.2-57.6-275.2c-6.4-19.2-19.2-32-38.4-32v0c-19.2 0-32 12.8-38.4 32l-115.2 467.2-38.4-160c-6.4-12.8-19.2-25.6-38.4-25.6h-76.8c-25.6 0-38.4 12.8-38.4 38.4 0 19.2 19.2 38.4 38.4 38.4h44.8l70.4 281.6c6.4 19.2 19.2 25.6 38.4 25.6s32-12.8 38.4-25.6l108.8-454.4 44.8 217.6c0 19.2 19.2 25.6 32 32 12.8 0 32-6.4 38.4-19.2l38.4-70.4 44.8 140.8c6.4 19.2 25.6 25.6 44.8 25.6s32-12.8 38.4-32l51.2-204.8 32 57.6c6.4 12.8 19.2 19.2 32 19.2h70.4c19.2 0 38.4-19.2 38.4-38.4s-12.8-32-38.4-32z" />
<glyph unicode="&#xe926;" glyph-name="pic" d="M812.8 454.4c-19.2 19.2-51.2 19.2-76.8 0l-160-115.2-211.2 256c-25.6 25.6-64 25.6-83.2 0l-192-211.2v371.2c0 32 25.6 57.6 57.6 57.6h729.6c32 0 57.6-25.6 57.6-57.6v-390.4l-121.6 89.6zM889.6 896h-755.2c-70.4 0-134.4-64-134.4-134.4v-620.8c0-76.8 64-140.8 134.4-140.8h748.8c76.8 0 134.4 64 134.4 134.4v627.2c6.4 70.4-57.6 134.4-128 134.4v0zM768 652.8c-25.6 0-51.2-25.6-51.2-51.2s25.6-51.2 51.2-51.2c25.6 0 51.2 25.6 51.2 51.2s-25.6 51.2-51.2 51.2z" />
<glyph unicode="&#xe927;" glyph-name="article" d="M825.6 960h-627.2c-89.6 0-160-70.4-160-153.6v-716.8c0-83.2 70.4-153.6 160-153.6h627.2c89.6 0 160 70.4 160 153.6v716.8c0 83.2-70.4 153.6-160 153.6v0zM262.4 710.4h268.8c19.2 0 38.4-12.8 38.4-38.4 0-12.8-19.2-32-38.4-32h-268.8c-19.2 0-38.4 19.2-38.4 38.4s19.2 32 38.4 32v0zM774.4 172.8h-512c-19.2 0-38.4 12.8-38.4 38.4 0 19.2 19.2 38.4 38.4 38.4h512c19.2 0 38.4-19.2 38.4-38.4 0-25.6-19.2-38.4-38.4-38.4v0zM774.4 403.2h-512c-19.2 0-38.4 12.8-38.4 38.4 0 19.2 19.2 38.4 38.4 38.4h512c19.2 0 38.4-12.8 38.4-38.4 0-19.2-19.2-38.4-38.4-38.4v0z" />
<glyph unicode="&#xe928;" glyph-name="mydistribute" d="M992 262.4h-128c-51.2 96-153.6 211.2-332.8 217.6v153.6h83.2c19.2 0 32 12.8 32 32v198.4c0 19.2-12.8 32-32 32h-204.8c-12.8 0-32-12.8-32-32v-204.8c0-19.2 12.8-32 32-32h83.2v-147.2c-185.6-6.4-281.6-121.6-332.8-217.6h-128c-19.2 0-32-12.8-32-32v-198.4c0-19.2 12.8-32 32-32h198.4c19.2 0 32 12.8 32 32v198.4c0 12.8-12.8 32-32 32h-32c44.8 76.8 134.4 172.8 288 179.2v-179.2h-76.8c-19.2 0-32-12.8-32-32v-192c0-19.2 12.8-32 32-32h198.4c19.2 0 32 12.8 32 32v192c0 19.2-12.8 32-32 32h-76.8v179.2c153.6-6.4 243.2-96 288-179.2h-25.6c-25.6 0-32-19.2-32-32v-198.4c0-19.2 12.8-32 32-32h198.4c19.2 0 32 12.8 32 32v198.4c0 19.2-12.8 32-32 32v0z" />
<glyph unicode="&#xe929;" glyph-name="audio" d="M512 832c-160 0-288-128-288-288 0-153.6 128-281.6 288-281.6s288 128 288 281.6c0 160-128 288-288 288v0zM179.2 441.6v256c-6.4 0-6.4 0-12.8 0 57.6 128 192 217.6 345.6 217.6s281.6-89.6 345.6-217.6c-6.4 0-6.4 0-12.8 0v-262.4c70.4 0 134.4 57.6 134.4 128 0 51.2-25.6 89.6-70.4 115.2-57.6 166.4-211.2 281.6-396.8 281.6s-339.2-115.2-396.8-275.2c-38.4-19.2-70.4-64-70.4-115.2 0-70.4 57.6-128 134.4-128v0zM800 288c-76.8-70.4-179.2-108.8-288-108.8s-211.2 44.8-288 108.8c-134.4-64-224-185.6-224-352h1024c0 166.4-89.6 288-224 352v0z" />
<glyph unicode="&#xe92a;" glyph-name="arrow-down" d="M1024 755.2l-512-614.4-512 614.4h1024z" />
<glyph unicode="&#xe92b;" glyph-name="theme-prod" d="M441.6 908.8v-396.8h-275.2c-38.4 0-64 44.8-44.8 76.8l230.4 352c25.6 38.4 89.6 19.2 89.6-32v0zM972.8 512h-396.8v275.2c0 38.4 44.8 64 76.8 38.4l352-230.4c38.4-19.2 19.2-83.2-32-83.2v0zM569.6-12.8v396.8h281.6c38.4 0 64-44.8 38.4-76.8l-230.4-352c-25.6-38.4-89.6-19.2-89.6 32v0zM51.2 384h396.8v-281.6c0-38.4-44.8-64-76.8-38.4l-345.6 230.4c-44.8 25.6-25.6 89.6 25.6 89.6v0z" />
<glyph unicode="&#xe92c;" glyph-name="video-prod" d="M889.6 102.4c83.2 89.6 134.4 211.2 134.4 345.6 0 281.6-230.4 512-512 512s-512-230.4-512-512 230.4-512 512-512c102.4 0 192 25.6 275.2 76.8 32-44.8 102.4-76.8 192-76.8 19.2 0 51.2 102.4 51.2 102.4-64 6.4-115.2 32-140.8 64v0zM256 320c-70.4 0-128 57.6-128 128s57.6 128 128 128c70.4 0 128-57.6 128-128s-57.6-128-128-128v0zM512 64c-70.4 0-128 57.6-128 128s57.6 128 128 128c70.4 0 128-57.6 128-128s-57.6-128-128-128v0zM448 448c0 38.4 25.6 64 64 64s64-25.6 64-64-25.6-64-64-64c-38.4 0-64 25.6-64 64v0zM512 576c-70.4 0-128 57.6-128 128s57.6 128 128 128c70.4 0 128-57.6 128-128s-57.6-128-128-128v0zM672 448c0 70.4 57.6 128 128 128s128-57.6 128-128c0-70.4-57.6-128-128-128s-128 57.6-128 128v0z" />
<glyph unicode="&#xe92d;" glyph-name="upload-full" d="M136 143h732q0 0 0 0t0 0q12 0 20 7.5t8 19.5v0 763q0 11-8 19t-20 8q0 0 0 0t0 0v0h-732q-1 0-1.5 0t-1.5 0q-54 0-92.5-37t-40.5-91v0q0 0 0 0t0 0q0-24 0-134t0-238 0-241 0-143q0 0 0-0.5t0-3.5q2-53 39-90t89-38v0h740q0 0 0 0t0 0q12 0 20 7.5t8 19.5v0 93q0 12-8 20t-20 8-20-8-8-20v0-75h-704q-1 0-1 0t-1 0q-31 0-53.5 22t-24.5 53v0 8q3 30 25.5 50.5t53.5 20.5q0 0 0 0t1 0v0 0zM456 836q59 0 112-22 52-23 91-62t62-91q23-53 23-113 0-59-23-112-23-52-62-91t-91-62q-53-23-112-23-60 0-112 23-53 23-92 62t-62 91q-22 53-22 112v0q0 60 22 113 23 52 62 91t92 62q52 22 112 22v0 0zM456 308q49 0 93 19t76.5 51.5 51.5 76.5 19 93q0 50-19 94t-51.5 76.5-76.5 51.5q-44 18-93 18-50 0-94-18-43-19-76-51.5t-51-76.5q-19-44-19-94v0q0 0 0 0t0 0q0-50 18-93 19-44 51.5-76.5t76.5-51.5q43-19 93-19 0 0 0.5 0t0.5 0v0 0zM431 684q4 3 8 4.5t9 2.5v0q3 1 6 1.5t6 0.5q7 0 12.5-2.5t9.5-6.5v0l107-108q4-4 6.5-9.5t2.5-12.5q0-6-2.5-11.5t-6.5-10.5v0q-4-4-9.5-6.5t-12.5-2.5q-6 0-11.5 2.5t-10.5 6.5v0l-61 64v-188q1-1 1-2t0-2q0-12-8.5-20.5t-20.5-8.5-20.5 8.5-8.5 20.5q0 1 0 2t1 2v0 184l-64-64q-5-4-10.5-6t-11.5-2q-14 0-23.5 9.5t-9.5 22.5q0 7 3 13.5t8 10.5v0l111 108z" />
<glyph unicode="&#xe92e;" glyph-name="file-transfer" d="M992 960h-819q0 0 0 0t0 0q-12 0-21-9t-9-21q0 0 0-0.5t0-0.5v0-481h44v437q0 12 8 20t19 8v0h737q11 0 19.5-8t8.5-20v0-803q0-11-8.5-19.5t-19.5-8.5v0h-737q-11 0-19 8.5t-8 19.5v0 143h-44v-188q0-12 9-21t21-9v0h819q12 0 21 9t9 21v0 892q0 0 0 0.5t0 0.5q0 12-9 21t-21 9q0 0 0 0t0 0v0 0zM1005 927l-478-133q-8-4-13-12t-5-18q0 0 0-0.5t0-1.5v0-803q0-11 5.5-18t12.5-4l478 132q8 5 13 13t5 17q0 1 0 1.5t0 1.5v0 803q0 11-5 17.5t-13 4.5v0zM425 369l-16 10-102 64q-3 2-6.5 3t-7.5 1q-8 0-14.5-4.5t-10.5-10.5v-1l-6-11q-2-3-3-6.5t-1-8.5q0-8 4-15t11-11v0l5-4h-249q0 0 0 0t0 0q-13 0-21.5-8.5t-8.5-20.5q0-1 0-2t0-2v0-12q0-1 0-1t0 0q0-12 8.5-20.5t20.5-8.5v0h250l-7-4q-6-5-10-12t-4-15q0-4 1-8t3-7h-1l7-11q3-7 10-11t15-4q4 0 7.5 1t7.5 3v0l101 64 19 11q5 6 8 14t3 16q0 1 0 1t0 0v0q0 0 0 0t0 1q0 9-3.5 17t-9.5 15v0-2z" />
<glyph unicode="&#xe90ca;" glyph-name="article-push" d="M121.6 921.6v0c0 0 0 0 0 0v0zM966.4 185.6c0 0-70.4-25.6-192-57.6-198.4-51.2-345.6 19.2-345.6 19.2 70.4 12.8 128 19.2 204.8 19.2 83.2 0 108.8 64 38.4 64-76.8 0-198.4 44.8-294.4 44.8s-172.8-44.8-172.8-44.8h-198.4v-166.4h198.4c0 0 64-32 179.2-76.8 166.4-70.4 364.8 19.2 428.8 57.6 70.4 38.4 70.4 38.4 134.4 64s70.4 44.8 70.4 44.8c12.8 32-51.2 32-51.2 32v0zM742.4 838.4v-550.4c19.2 0 32-6.4 51.2-6.4 6.4 0 12.8 0 19.2 0v620.8c0 19.2-19.2 38.4-38.4 38.4h-569.6c-19.2 0-38.4-19.2-38.4-38.4v-32h537.6c25.6 6.4 38.4-12.8 38.4-32v0zM620.8 838.4h-384c-44.8 0-76.8-32-76.8-70.4v-384c0-32 32-64 76.8-64h384c38.4 0 70.4 32 70.4 70.4v377.6c0 38.4-32 70.4-70.4 70.4zM620.8 467.2c0-19.2-19.2-38.4-44.8-38.4h-300.8c-19.2 0-38.4 19.2-38.4 38.4v0c0 19.2 19.2 38.4 44.8 38.4h294.4c25.6 0 44.8-12.8 44.8-38.4v0zM620.8 627.2c0-19.2-19.2-38.4-44.8-38.4h-300.8c-19.2 0-38.4 19.2-38.4 38.4v0c0 19.2 19.2 38.4 44.8 38.4h294.4c25.6 0 44.8-12.8 44.8-38.4v0z" />
<glyph unicode="&#xe90cc;" glyph-name="mixins" d="M1011.2 953.6c-19.2 12.8-38.4 6.4-51.2 0l-934.4-460.8c-19.2-12.8-25.6-19.2-25.6-38.4s6.4-32 19.2-38.4l224-140.8c19.2-6.4 38.4-6.4 57.6 6.4l492.8 441.6 19.2-6.4-448-473.6c-6.4-6.4-6.4-19.2-6.4-25.6v-204.8c0-19.2 6.4-38.4 25.6-44.8s38.4 0 44.8 6.4l108.8 108.8 224-147.2c12.8-6.4 32-12.8 44.8-6.4 12.8 0 25.6 19.2 32 38.4l179.2 928c6.4 25.6 12.8 44.8-6.4 57.6z" />
<glyph unicode="&#xe90cf;" glyph-name="publish" d="M151.495 134.884c6.713-10.98 19.115-17.806 32.427-17.806h546.304c13.312 0 25.771 6.827 32.484 17.806 6.77 11.207 6.77 25.088 0 36.238-6.599 10.98-19.058 17.806-32.484 17.806h-546.304c-13.369 0-25.828-6.827-32.427-17.806-6.77-11.15-6.77-25.031 0-36.238zM871.936 329.5c-11.435 6.087-25.828 6.087-37.376 0-11.605-6.428-18.83-18.432-18.83-31.346v-241.55c-0.057-13.54-11.833-24.69-26.226-24.69h-664.917c-14.45 0-26.226 11.036-26.226 24.69v782.791c0 6.372 2.731 12.743 7.509 17.294 5.12 4.722 11.719 7.339 18.716 7.339h450.219c13.312 0 25.771 6.884 32.54 17.92 6.713 11.15 6.713 25.031-0.057 36.238-6.656 10.98-19.172 17.806-32.484 17.806h-450.219c-55.865 0-101.376-43.349-101.376-96.654v-782.791c0-53.362 45.454-96.654 101.376-96.654h664.917c55.865 0 101.319 43.349 101.319 96.654v241.55c0 12.971-7.225 24.974-18.887 31.403zM970.923 765.44l-103.31 98.247c-18.261 17.351-44.373 27.307-71.68 27.307s-53.362-9.956-71.623-27.307l-305.323-290.361c-30.834-29.412-57.742-84.821-61.383-126.066l-6.94-78.905c-6.542-75.833-6.713-77.255 6.144-89.372 6.997-6.656 16.498-10.468 26.681-10.581h0.057c3.925 0 21.39 1.195 66.788 4.779l83.058 6.656c43.349 3.356 101.376 28.9 132.153 58.197l305.38 290.361c19.228 18.318 29.753 42.667 29.753 68.551 0.057 25.941-10.581 50.233-29.753 68.494zM925.525 696.946c0-6.542-2.731-12.686-7.623-17.351l-305.38-290.361c-18.432-17.636-59.108-35.556-85.333-37.66l-103.196-8.135 8.647 97.792c2.162 24.804 20.935 63.317 39.424 80.896l305.266 290.304c5.006 4.722 11.548 7.282 18.546 7.282h0.228c6.997 0 13.596-2.503 18.432-7.111l103.367-98.304c4.892-4.608 7.623-10.809 7.623-17.351z" />
</font>
</defs>
</svg>
